{"accessors" : [{"bufferView" : 0, "byteOffset" : 0, "componentType" : 5123, "count" : 5160, "type" : "SCALAR", "max" : [1402], "min" : [0]}, {"bufferView" : 1, "byteOffset" : 0, "componentType" : 5126, "count" : 1403, "type" : "VEC3", "max" : [0.8521950244903564, 0.0665431022644043, -0.38101500272750854], "min" : [-0.7160199880599976, 0.01009989995509386, -0.47874701023101807]}, {"bufferView" : 1, "byteOffset" : 12, "componentType" : 5126, "count" : 1403, "type" : "VEC3", "max" : [1.0000044107437134, 0.9998423457145691, 0.9952685832977295], "min" : [-1.0000044107437134, -0.9998423457145691, -0.888267993927002]}, {"bufferView" : 1, "byteOffset" : 24, "componentType" : 5126, "count" : 1403, "type" : "VEC3", "max" : [1.0000044107437134, 1.0000044107437134, 1.0000041723251343], "min" : [-0.9932396411895752, -1.0000044107437134, -1.0000044107437134]}, {"bufferView" : 1, "byteOffset" : 36, "componentType" : 5126, "count" : 1403, "type" : "VEC3", "max" : [1.0000044107437134, 1.0000044107437134, 1.0000044107437134], "min" : [-1.0000044107437134, -1.0000044107437134, -1.0000044107437134]}, {"bufferView" : 1, "byteOffset" : 48, "componentType" : 5126, "count" : 1403, "type" : "VEC2", "max" : [0.992900013923645, -0.0007999999797903001], "min" : [0.0007999999797903001, -0.994700014591217]}, {"bufferView" : 0, "byteOffset" : 10320, "componentType" : 5123, "count" : 1026, "type" : "SCALAR", "max" : [311], "min" : [0]}, {"bufferView" : 2, "byteOffset" : 0, "componentType" : 5126, "count" : 312, "type" : "VEC3", "max" : [0.1260409951210022, -0.10040300339460373, 0.43977901339530945], "min" : [-0.12507399916648865, -0.21092399954795837, -0.30182498693466187]}, {"bufferView" : 2, "byteOffset" : 12, "componentType" : 5126, "count" : 312, "type" : "VEC3", "max" : [1.0000044107437134, 0.819495439529419, 1.0000044107437134], "min" : [-1.0000044107437134, -0.8179222345352173, -1.0000044107437134]}, {"bufferView" : 2, "byteOffset" : 24, "componentType" : 5126, "count" : 312, "type" : "VEC3", "max" : [1.0000044107437134, 0.9629659652709961, 1.0000044107437134], "min" : [-1.0000044107437134, -0.96241295337677, -1.0000044107437134]}, {"bufferView" : 2, "byteOffset" : 36, "componentType" : 5126, "count" : 312, "type" : "VEC3", "max" : [0.960850715637207, 1.0000044107437134, 0.9856623411178589], "min" : [-0.9603582620620728, -0.9474732875823975, -0.9860474467277527]}, {"bufferView" : 2, "byteOffset" : 48, "componentType" : 5126, "count" : 312, "type" : "VEC2", "max" : [0.9990000128746033, -0.07180000096559525], "min" : [0.32010000944137573, -0.9952999949455261]}, {"bufferView" : 0, "byteOffset" : 12372, "componentType" : 5123, "count" : 3744, "type" : "SCALAR", "max" : [903], "min" : [0]}, {"bufferView" : 3, "byteOffset" : 0, "componentType" : 5126, "count" : 904, "type" : "VEC3", "max" : [0.4129349887371063, 0.03621640056371689, 0.2988860011100769], "min" : [-0.4129349887371063, -0.09047529846429825, 0.17095200717449188]}, {"bufferView" : 3, "byteOffset" : 12, "componentType" : 5126, "count" : 904, "type" : "VEC3", "max" : [0.994604766368866, 1.0000044107437134, 1.0000044107437134], "min" : [-0.994604766368866, -1.0000044107437134, -1.0000044107437134]}, {"bufferView" : 3, "byteOffset" : 24, "componentType" : 5126, "count" : 904, "type" : "VEC3", "max" : [1.0000044107437134, 0.9848958849906921, 0.9943966865539551], "min" : [-0.9688860774040222, -0.9848958849906921, -0.9943966865539551]}, {"bufferView" : 3, "byteOffset" : 36, "componentType" : 5126, "count" : 904, "type" : "VEC3", "max" : [0.9999816417694092, 1.0000028610229492, 0.9999362230300903], "min" : [-1.0000044107437134, -0.999977171421051, -0.9999954700469971]}, {"bufferView" : 3, "byteOffset" : 48, "componentType" : 5126, "count" : 904, "type" : "VEC2", "max" : [0.9973000288009644, -0.0007999999797903001], "min" : [0.006500000134110451, -0.9761999845504761]}, {"bufferView" : 0, "byteOffset" : 19860, "componentType" : 5123, "count" : 6228, "type" : "SCALAR", "max" : [1268], "min" : [0]}, {"bufferView" : 4, "byteOffset" : 0, "componentType" : 5126, "count" : 1269, "type" : "VEC3", "max" : [1, 0.21092399954795837, 0.624442994594574], "min" : [-1, -0.137595996260643, -0.624442994594574]}, {"bufferView" : 4, "byteOffset" : 12, "componentType" : 5126, "count" : 1269, "type" : "VEC3", "max" : [1.0000044107437134, 0.9999335408210754, 0.9444659352302551], "min" : [-1.0000044107437134, -1.0000035762786865, -1.0000044107437134]}, {"bufferView" : 4, "byteOffset" : 24, "componentType" : 5126, "count" : 1269, "type" : "VEC3", "max" : [1.0000044107437134, 0.9427802562713623, 1.0000041723251343], "min" : [-0.8026771545410156, -0.9755156636238098, -1.0000042915344238]}, {"bufferView" : 4, "byteOffset" : 36, "componentType" : 5126, "count" : 1269, "type" : "VEC3", "max" : [1.0000044107437134, 1.0000014305114746, 0.9902722835540771], "min" : [-0.9944452047348022, -1.0000044107437134, -0.999936580657959]}, {"bufferView" : 4, "byteOffset" : 48, "componentType" : 5126, "count" : 1269, "type" : "VEC2", "max" : [0.9495999813079834, -0.0007999999797903001], "min" : [0.0007999999797903001, -0.9645000100135803]}, {"bufferView" : 0, "byteOffset" : 32316, "componentType" : 5123, "count" : 5340, "type" : "SCALAR", "max" : [1445], "min" : [0]}, {"bufferView" : 5, "byteOffset" : 0, "componentType" : 5126, "count" : 1446, "type" : "VEC3", "max" : [0.7146900296211243, 0.0665431022644043, -0.38101500272750854], "min" : [-0.8535249829292297, 0.01009989995509386, -0.47874701023101807]}, {"bufferView" : 5, "byteOffset" : 12, "componentType" : 5126, "count" : 1446, "type" : "VEC3", "max" : [1.0000044107437134, 0.9998423457145691, 0.9952685832977295], "min" : [-1.0000044107437134, -0.9998423457145691, -0.888267993927002]}, {"bufferView" : 5, "byteOffset" : 24, "componentType" : 5126, "count" : 1446, "type" : "VEC3", "max" : [1.0000044107437134, 1.0000044107437134, 1.0000041723251343], "min" : [-0.992128849029541, -1.0000044107437134, -1.0000044107437134]}, {"bufferView" : 5, "byteOffset" : 36, "componentType" : 5126, "count" : 1446, "type" : "VEC3", "max" : [1.0000044107437134, 1.0000044107437134, 1.0000044107437134], "min" : [-1.0000044107437134, -1.0000044107437134, -1.0000044107437134]}, {"bufferView" : 5, "byteOffset" : 48, "componentType" : 5126, "count" : 1446, "type" : "VEC2", "max" : [0.9878000020980835, -0.0007999999797903001], "min" : [0.005400000140070915, -0.9991999864578247]}, {"bufferView" : 0, "byteOffset" : 42996, "componentType" : 5123, "count" : 6120, "type" : "SCALAR", "max" : [1563], "min" : [0]}, {"bufferView" : 6, "byteOffset" : 0, "componentType" : 5126, "count" : 1564, "type" : "VEC3", "max" : [0.8361480236053467, 0.04432019963860512, 0.25821399688720703], "min" : [-0.8361480236053467, -0.06542419642210007, -0.44523701071739197]}, {"bufferView" : 6, "byteOffset" : 12, "componentType" : 5126, "count" : 1564, "type" : "VEC3", "max" : [0.9746382832527161, 0.9746232628822327, 0.8557096719741821], "min" : [-0.9746382832527161, -0.9746232628822327, -0.7677305936813354]}, {"bufferView" : 6, "byteOffset" : 24, "componentType" : 5126, "count" : 1564, "type" : "VEC3", "max" : [0.9740740060806274, 0.9693763852119446, 0.6448338627815247], "min" : [-0.9740731120109558, -0.7492640018463135, -0.9867296814918518]}, {"bufferView" : 6, "byteOffset" : 36, "componentType" : 5126, "count" : 1564, "type" : "VEC3", "max" : [0.9881409406661987, 0.9867081046104431, 0.657995879650116], "min" : [-0.9876556396484375, -0.9642542600631714, -0.6579968929290771]}, {"bufferView" : 6, "byteOffset" : 48, "componentType" : 5126, "count" : 1564, "type" : "VEC2", "max" : [0.043699998408555984, -0.37459999322891235], "min" : [0.005400000140070915, -0.4336000084877014]}, {"bufferView" : 0, "byteOffset" : 55236, "componentType" : 5123, "count" : 13800, "type" : "SCALAR", "max" : [9199], "min" : [0]}, {"bufferView" : 7, "byteOffset" : 0, "componentType" : 5126, "count" : 9200, "type" : "VEC3", "max" : [0.8508260250091553, 0.05885849893093109, 0.2432280033826828], "min" : [-0.8508260250091553, -0.0811104029417038, -0.4256240129470825]}, {"bufferView" : 7, "byteOffset" : 12, "componentType" : 5126, "count" : 9200, "type" : "VEC3", "max" : [1.0000044107437134, 1.0000044107437134, 1.0000044107437134], "min" : [-1.0000044107437134, -1.0000044107437134, -1.0000044107437134]}, {"bufferView" : 7, "byteOffset" : 24, "componentType" : 5126, "count" : 9200, "type" : "VEC3", "max" : [1.0000044107437134, 1.0000044107437134, 1.0000044107437134], "min" : [-1.0000044107437134, -1.0000044107437134, -1.0000044107437134]}, {"bufferView" : 7, "byteOffset" : 36, "componentType" : 5126, "count" : 9200, "type" : "VEC3", "max" : [1.0000044107437134, 1.0000044107437134, 1.093324590328848E-05], "min" : [-1.0000044107437134, -1.0000044107437134, 0]}, {"bufferView" : 7, "byteOffset" : 48, "componentType" : 5126, "count" : 9200, "type" : "VEC2", "max" : [0.3727000057697296, -0.40139999985694885], "min" : [0.3447999954223633, -0.4462999999523163]}], "asset" : {"generator" : "Aspose.3D 21.1", "version" : "2.0"}, "buffers" : [{"uri" : "buffer.bin", "byteLength" : 2402276}], "bufferViews" : [{"buffer" : 0, "byteOffset" : 0, "byteLength" : 82836, "target" : 34963}, {"buffer" : 0, "byteOffset" : 82840, "byteLength" : 288960, "byteStride" : 56, "target" : 34962}, {"buffer" : 0, "byteOffset" : 371804, "byteLength" : 57456, "byteStride" : 56, "target" : 34962}, {"buffer" : 0, "byteOffset" : 429264, "byteLength" : 209664, "byteStride" : 56, "target" : 34962}, {"buffer" : 0, "byteOffset" : 638932, "byteLength" : 348768, "byteStride" : 56, "target" : 34962}, {"buffer" : 0, "byteOffset" : 987704, "byteLength" : 299040, "byteStride" : 56, "target" : 34962}, {"buffer" : 0, "byteOffset" : 1286748, "byteLength" : 342720, "byteStride" : 56, "target" : 34962}, {"buffer" : 0, "byteOffset" : 1629472, "byteLength" : 772800, "byteStride" : 56, "target" : 34962}], "materials" : [{"pbrMetallicRoughness" : {"baseColorFactor" : [0.031702, 0, 0.64, 1], "metallicFactor" : 0, "roughnessFactor" : 0}, "emissiveFactor" : [0, 0, 0], "alphaMode" : "OPAQUE", "doubleSided" : false}, {"pbrMetallicRoughness" : {"baseColorFactor" : [0.031702, 0, 0.64, 1], "metallicFactor" : 0, "roughnessFactor" : 0}, "emissiveFactor" : [0, 0, 0], "alphaMode" : "OPAQUE", "doubleSided" : false}, {"pbrMetallicRoughness" : {"baseColorFactor" : [0.031702, 0, 0.64, 1], "metallicFactor" : 0, "roughnessFactor" : 0}, "emissiveFactor" : [0, 0, 0], "alphaMode" : "OPAQUE", "doubleSided" : false}, {"pbrMetallicRoughness" : {"baseColorFactor" : [0.031702, 0, 0.64, 1], "metallicFactor" : 0, "roughnessFactor" : 0}, "emissiveFactor" : [0, 0, 0], "alphaMode" : "OPAQUE", "doubleSided" : false}, {"pbrMetallicRoughness" : {"baseColorFactor" : [0.031702, 0, 0.64, 1], "metallicFactor" : 0, "roughnessFactor" : 0}, "emissiveFactor" : [0, 0, 0], "alphaMode" : "OPAQUE", "doubleSided" : false}, {"pbrMetallicRoughness" : {"baseColorFactor" : [0.031702, 0, 0.64, 1], "metallicFactor" : 0, "roughnessFactor" : 0}, "emissiveFactor" : [0, 0, 0], "alphaMode" : "OPAQUE", "doubleSided" : false}, {"pbrMetallicRoughness" : {"baseColorFactor" : [0.031702, 0, 0.64, 1], "metallicFactor" : 0, "roughnessFactor" : 0}, "emissiveFactor" : [0, 0, 0], "alphaMode" : "OPAQUE", "doubleSided" : false}], "meshes" : [{"primitives" : [{"attributes" : {"POSITION" : 1, "NORMAL" : 2, "TANGENT" : 3, "BINORMAL" : 4, "TEXCOORD_0" : 5}, "indices" : 0, "material" : 0, "mode" : 4}]}, {"primitives" : [{"attributes" : {"POSITION" : 7, "NORMAL" : 8, "TANGENT" : 9, "BINORMAL" : 10, "TEXCOORD_0" : 11}, "indices" : 6, "material" : 1, "mode" : 4}]}, {"primitives" : [{"attributes" : {"POSITION" : 13, "NORMAL" : 14, "TANGENT" : 15, "BINORMAL" : 16, "TEXCOORD_0" : 17}, "indices" : 12, "material" : 2, "mode" : 4}]}, {"primitives" : [{"attributes" : {"POSITION" : 19, "NORMAL" : 20, "TANGENT" : 21, "BINORMAL" : 22, "TEXCOORD_0" : 23}, "indices" : 18, "material" : 3, "mode" : 4}]}, {"primitives" : [{"attributes" : {"POSITION" : 25, "NORMAL" : 26, "TANGENT" : 27, "BINORMAL" : 28, "TEXCOORD_0" : 29}, "indices" : 24, "material" : 4, "mode" : 4}]}, {"primitives" : [{"attributes" : {"POSITION" : 31, "NORMAL" : 32, "TANGENT" : 33, "BINORMAL" : 34, "TEXCOORD_0" : 35}, "indices" : 30, "material" : 5, "mode" : 4}]}, {"primitives" : [{"attributes" : {"POSITION" : 37, "NORMAL" : 38, "TANGENT" : 39, "BINORMAL" : 40, "TEXCOORD_0" : 41}, "indices" : 36, "material" : 6, "mode" : 4}]}], "nodes" : [{"mesh" : 0, "name" : "e_low_Plane.004"}, {"mesh" : 1, "name" : "d_low_Plane.003"}, {"mesh" : 2, "name" : "a_low_Plane.002"}, {"mesh" : 3, "name" : "k_low_Plane.001"}, {"mesh" : 4, "name" : "c_low_Plane.049"}, {"mesh" : 5, "name" : "Adzusa_Plane.045"}, {"mesh" : 6, "name" : "Kurumi_Plane.032"}], "scene" : 0, "scenes" : [{"nodes" : [0, 1, 2, 3, 4, 5, 6]}]}